# Blender 3.5.0
# www.blender.org
o Pyr
v -1.000000 0.000000 1.000000
v 1.000000 0.000000 1.000000
v -1.000000 0.000000 -1.000000
v 1.000000 0.000000 -1.000000
v -0.000484 1.999832 0.000059
vn -0.0000 -1.0000 -0.0000
vn -0.0000 0.4473 -0.8944
vn 0.8943 0.4474 -0.0000
vn -0.0000 0.4472 0.8944
vn -0.8945 0.4471 -0.0000
vt 0.998170 0.746724
vt 0.644515 0.434089
vt 0.998170 0.393071
vt 0.648176 0.746724
vt 0.321334 0.001830
vt 0.324994 0.576925
vt 0.998170 0.396731
vt 0.644516 0.430429
vt 0.648176 0.393071
vt 0.648176 0.396731
vt 0.324994 0.287595
vt 0.001830 0.144704
vt 0.644516 0.001830
vt 0.321334 0.430489
vt 0.644515 0.862679
vt 0.823183 0.001830
s 0
f 1/1/1 3/7/1 4/10/1 2/4/1
f 3/8/2 5/13/2 4/11/2
f 4/12/3 5/14/3 2/5/3
f 2/6/4 5/15/4 1/2/4
f 1/3/5 5/16/5 3/9/5
